<svg width="20" height="21" viewBox="0 0 20 21" fill="none" xmlns="http://www.w3.org/2000/svg">
<g clip-path="url(#clip0_406_727)">
<path d="M10 20.7295C15.5228 20.7295 20 16.2523 20 10.7295C20 5.20665 15.5228 0.729492 10 0.729492C4.47715 0.729492 0 5.20665 0 10.7295C0 16.2523 4.47715 20.7295 10 20.7295Z" fill="white"/>
<path d="M12.5139 11.1209H10.7295V17.658H8.02602V11.1209H6.74023V8.82347H8.02602V7.33679C8.02602 6.27365 8.53103 4.60889 10.7536 4.60889L12.7561 4.61726V6.84729H11.3031C11.0648 6.84729 10.7297 6.96637 10.7297 7.47352V8.82561H12.7501L12.5139 11.1209Z" fill="#305F64"/>
</g>
<defs>
<clipPath id="clip0_406_727">
<rect width="20" height="20" fill="white" transform="translate(0 0.729492)"/>
</clipPath>
</defs>
</svg>
