<svg width="20" height="21" viewBox="0 0 20 21" fill="none" xmlns="http://www.w3.org/2000/svg">
<g clip-path="url(#clip0_406_732)">
<path d="M10.0019 20.7293C15.5247 20.7293 20.0018 16.2522 20.0018 10.7294C20.0018 5.2066 15.5247 0.729492 10.0019 0.729492C4.47907 0.729492 0.00195312 5.2066 0.00195312 10.7294C0.00195312 16.2522 4.47907 20.7293 10.0019 20.7293Z" fill="white"/>
<path d="M16.1271 7.91605C15.6986 8.10607 15.2376 8.2346 14.7542 8.292C15.2478 7.99627 15.6266 7.52834 15.8054 6.96986C15.3435 7.24384 14.8317 7.4426 14.2875 7.54973C13.8515 7.08537 13.2303 6.79517 12.5424 6.79517C11.2226 6.79517 10.1521 7.8656 10.1521 9.18543C10.1521 9.37277 10.1733 9.55513 10.2143 9.73018C8.22782 9.63054 6.46646 8.679 5.28746 7.23243C5.08175 7.58538 4.96374 7.99627 4.96374 8.43425C4.96374 9.26332 5.38603 9.99525 6.02705 10.4238C5.63542 10.4115 5.2666 10.304 4.94449 10.1245C4.94431 10.1346 4.94431 10.1448 4.94431 10.1548C4.94431 11.3129 5.76858 12.2789 6.86183 12.4983C6.66147 12.5533 6.44988 12.5823 6.23222 12.5823C6.07785 12.5823 5.92829 12.5675 5.78248 12.5397C6.08659 13.4891 6.96914 14.1802 8.01534 14.1996C7.19713 14.8408 6.16663 15.2228 5.04645 15.2228C4.85393 15.2228 4.6632 15.2116 4.47656 15.1893C5.53381 15.8678 6.79053 16.2633 8.1403 16.2633C12.5368 16.2633 14.9412 12.6212 14.9412 9.46226C14.9412 9.35869 14.9389 9.25548 14.9342 9.15316C15.4016 8.81625 15.8068 8.39539 16.1271 7.91605Z" fill="#305F64"/>
</g>
<defs>
<clipPath id="clip0_406_732">
<rect width="20" height="20" fill="white" transform="translate(0 0.729492)"/>
</clipPath>
</defs>
</svg>
