<svg width="20" height="21" viewBox="0 0 20 21" fill="none" xmlns="http://www.w3.org/2000/svg">
<g clip-path="url(#clip0_406_738)">
<path d="M11.9141 10.7295C11.9141 11.7866 11.0571 12.6436 10 12.6436C8.94287 12.6436 8.08594 11.7866 8.08594 10.7295C8.08594 9.67236 8.94287 8.81543 10 8.81543C11.0571 8.81543 11.9141 9.67236 11.9141 10.7295Z" fill="white"/>
<path d="M14.4769 7.34293C14.3849 7.0936 14.2381 6.86792 14.0474 6.68268C13.8622 6.49194 13.6366 6.34515 13.3871 6.25314C13.1848 6.17456 12.8809 6.08102 12.321 6.05554C11.7154 6.02792 11.5338 6.02197 10.0006 6.02197C8.46725 6.02197 8.28568 6.02777 7.68021 6.05539C7.12036 6.08102 6.81625 6.17456 6.61407 6.25314C6.36459 6.34515 6.13892 6.49194 5.95383 6.68268C5.76309 6.86792 5.6163 7.09345 5.52414 7.34293C5.44556 7.54526 5.35202 7.84937 5.32654 8.40921C5.29892 9.01468 5.29297 9.19626 5.29297 10.7296C5.29297 12.2628 5.29892 12.4444 5.32654 13.05C5.35202 13.6099 5.44556 13.9138 5.52414 14.1162C5.6163 14.3656 5.76294 14.5912 5.95367 14.7764C6.13892 14.9671 6.36444 15.1139 6.61392 15.2059C6.81625 15.2847 7.12036 15.3782 7.68021 15.4037C8.28568 15.4313 8.4671 15.4371 10.0005 15.4371C11.534 15.4371 11.7155 15.4313 12.3209 15.4037C12.8807 15.3782 13.1848 15.2847 13.3871 15.2059C13.8879 15.0128 14.2838 14.6169 14.4769 14.1162C14.5555 13.9138 14.649 13.6099 14.6747 13.05C14.7023 12.4444 14.7081 12.2628 14.7081 10.7296C14.7081 9.19626 14.7023 9.01468 14.6747 8.40921C14.6492 7.84937 14.5557 7.54526 14.4769 7.34293ZM10.0006 13.6781C8.37204 13.6781 7.05185 12.358 7.05185 10.7295C7.05185 9.10089 8.37204 7.78085 10.0006 7.78085C11.629 7.78085 12.9492 9.10089 12.9492 10.7295C12.9492 12.358 11.629 13.6781 10.0006 13.6781ZM13.0658 8.35336C12.6852 8.35336 12.3767 8.04483 12.3767 7.66428C12.3767 7.28372 12.6852 6.97519 13.0658 6.97519C13.4464 6.97519 13.7549 7.28372 13.7549 7.66428C13.7547 8.04483 13.4464 8.35336 13.0658 8.35336Z" fill="white"/>
<path d="M10 0.729492C4.478 0.729492 0 5.20749 0 10.7295C0 16.2515 4.478 20.7295 10 20.7295C15.522 20.7295 20 16.2515 20 10.7295C20 5.20749 15.522 0.729492 10 0.729492ZM15.7076 13.0969C15.6798 13.7082 15.5826 14.1255 15.4407 14.4908C15.1424 15.2621 14.5326 15.8719 13.7613 16.1702C13.3961 16.3121 12.9787 16.4091 12.3676 16.437C11.7552 16.465 11.5596 16.4717 10.0002 16.4717C8.44055 16.4717 8.24509 16.465 7.6326 16.437C7.02148 16.4091 6.604 16.3121 6.23886 16.1702C5.85556 16.026 5.50858 15.8 5.22171 15.5078C4.92966 15.2211 4.70367 14.8739 4.55948 14.4908C4.41757 14.1256 4.32037 13.7082 4.2926 13.097C4.26437 12.4846 4.25781 12.2889 4.25781 10.7295C4.25781 9.17004 4.26437 8.97443 4.29245 8.36209C4.32022 7.75082 4.41727 7.3335 4.55917 6.9682C4.70337 6.58505 4.9295 6.23792 5.22171 5.9512C5.50842 5.659 5.85556 5.43301 6.23871 5.28882C6.604 5.14691 7.02133 5.04987 7.6326 5.02194C8.24493 4.99402 8.44055 4.9873 10 4.9873C11.5594 4.9873 11.7551 4.99402 12.3674 5.02209C12.9787 5.04987 13.396 5.14691 13.7613 5.28867C14.1444 5.43286 14.4916 5.659 14.7784 5.9512C15.0705 6.23807 15.2966 6.58505 15.4407 6.9682C15.5827 7.3335 15.6798 7.75082 15.7077 8.36209C15.7356 8.97443 15.7422 9.17004 15.7422 10.7295C15.7422 12.2889 15.7356 12.4846 15.7076 13.0969V13.0969Z" fill="white"/>
</g>
<defs>
<clipPath id="clip0_406_738">
<rect width="20" height="20" fill="white" transform="translate(0 0.729492)"/>
</clipPath>
</defs>
</svg>
