<svg width="20" height="21" viewBox="0 0 20 21" fill="none" xmlns="http://www.w3.org/2000/svg">
<g clip-path="url(#clip0_406_743)">
<path d="M10 20.7295C15.5229 20.7295 20 16.2524 20 10.7295C20 5.20665 15.5229 0.729492 10 0.729492C4.47716 0.729492 0 5.20665 0 10.7295C0 16.2524 4.47716 20.7295 10 20.7295Z" fill="white"/>
<path d="M17.0708 3.65747C20.9761 7.56306 20.9764 13.895 17.0708 17.8005C13.1656 21.7058 6.83332 21.706 2.92773 17.8005L17.0708 3.65747Z" fill="white"/>
<path d="M19.7998 12.7321L14.8505 7.78296L9.01327 8.44757L5.48242 13.9139L12.0801 20.5114C15.9591 19.6908 19.0087 16.6224 19.7998 12.7321Z" fill="white"/>
<path d="M15.2328 8.79951C15.2328 7.9612 14.5537 7.28174 13.7159 7.28174H6.59871C5.76103 7.28174 5.08203 7.96137 5.08203 8.79951V12.8695C5.08203 13.7078 5.76116 14.3872 6.59871 14.3872H13.7157C14.5537 14.3872 15.2327 13.7076 15.2327 12.8695V8.79951H15.2328ZM9.14203 12.5514V8.72878L12.041 10.6402L9.14203 12.5514Z" fill="#305F64"/>
</g>
<defs>
<clipPath id="clip0_406_743">
<rect width="20" height="20" fill="white" transform="translate(0 0.729492)"/>
</clipPath>
</defs>
</svg>
