<svg width="17" height="17" viewBox="0 0 17 17" fill="none" xmlns="http://www.w3.org/2000/svg">
<g clip-path="url(#clip0_395_1807)">
<path d="M10.6211 8.57243L16.0151 11.9824V5.01843L10.6211 8.57243Z" fill="#7F7F7F"/>
<path d="M0.015625 5.01843V11.9824L5.40963 8.57243L0.015625 5.01843Z" fill="#7F7F7F"/>
<path d="M15.0169 2.99048H1.01688C0.517875 2.99048 0.121875 3.36248 0.046875 3.84148L8.01687 9.09248L15.9869 3.84148C15.9119 3.36248 15.5159 2.99048 15.0169 2.99048Z" fill="#7F7F7F"/>
<path d="M9.70487 9.17654L8.28988 10.1085C8.20588 10.1635 8.11088 10.1905 8.01487 10.1905C7.91887 10.1905 7.82387 10.1635 7.73987 10.1085L6.32487 9.17554L0.046875 13.1465C0.123875 13.6215 0.517875 13.9905 1.01487 13.9905H15.0149C15.5119 13.9905 15.9059 13.6215 15.9829 13.1465L9.70487 9.17654Z" fill="#7F7F7F"/>
</g>
<defs>
<clipPath id="clip0_395_1807">
<rect width="16" height="16" fill="white" transform="translate(0.015625 0.490479)"/>
</clipPath>
</defs>
</svg>
