<svg width="25" height="25" viewBox="0 0 25 25" fill="none" xmlns="http://www.w3.org/2000/svg">
<g clip-path="url(#clip0_368_1482)">
<path d="M5.38281 11.989H11.5234C12.0633 11.989 12.5562 12.1931 12.9297 12.5278C13.3032 12.1931 13.7961 11.989 14.3359 11.989H20.4766V4.44847C20.4766 4.06198 20.1673 3.74037 19.7808 3.73901C19.775 3.73901 20.0208 3.73901 6.08594 3.73901C5.68581 3.73901 5.38281 4.06705 5.38281 4.44847V11.989Z" fill="#666666"/>
<path d="M13.6328 14.0984V15.739H20.4766C20.4766 14.7004 20.4766 14.4871 20.4766 13.3953H14.3359C13.9482 13.3953 13.6328 13.7107 13.6328 14.0984Z" fill="#666666"/>
<path d="M22.6569 8.61509C22.2235 8.62859 21.8828 8.99215 21.8828 9.42574C21.8828 9.53702 21.8828 16.8415 21.8828 16.4421C21.8828 16.8304 21.568 17.1453 21.1797 17.1453C20.6176 17.1453 4.14592 17.1453 4.67969 17.1453C4.29137 17.1453 3.97656 16.8304 3.97656 16.4421C3.97656 16.1827 3.97656 9.3581 3.97656 9.42574C3.97656 8.99215 3.63592 8.62859 3.20252 8.61509C1.9533 8.57618 0.929688 9.57556 0.929688 10.8171V18.0359C0.929688 19.2009 1.87408 20.1453 3.03906 20.1453H3.97656V20.9223C3.97656 21.3009 4.26752 21.6267 4.6457 21.6445C5.04948 21.6635 5.38281 21.3417 5.38281 20.9421V20.1453H20.4766V20.9223C20.4766 21.3009 20.7675 21.6267 21.1457 21.6445C21.5495 21.6635 21.8828 21.3417 21.8828 20.9421V20.1453H22.8203C23.9853 20.1453 24.9297 19.2009 24.9297 18.0359V10.8567C24.9297 9.55873 23.8981 8.57641 22.6569 8.61509Z" fill="#666666"/>
<path d="M12.2266 14.0984C12.2266 13.7107 11.9111 13.3953 11.5234 13.3953H5.38281V15.739H12.2266V14.0984Z" fill="#666666"/>
</g>
<defs>
<clipPath id="clip0_368_1482">
<rect width="24" height="24" fill="white" transform="translate(0.929688 0.692139)"/>
</clipPath>
</defs>
</svg>
