<svg width="25" height="25" viewBox="0 0 25 25" fill="none" xmlns="http://www.w3.org/2000/svg">
<g clip-path="url(#clip0_368_1506)">
<path d="M20.5523 10.2503C20.8332 10.2503 21.0608 10.0226 21.0608 9.74175V8.1103C21.0608 7.8294 20.8332 7.60172 20.5523 7.60172L19.8284 7.60612L17.4531 10.2503H20.5523Z" fill="#666666"/>
<path d="M5.30546 10.2502H8.42897L6.01253 7.60162H5.30546C5.02456 7.60162 4.79688 7.82931 4.79688 8.11021V9.74153C4.79688 10.0225 5.02456 10.2502 5.30546 10.2502Z" fill="#666666"/>
<path d="M13.2222 12.8729L17.9354 7.60172H7.92578L12.7164 12.8749C12.8522 13.0244 13.0876 13.0235 13.2222 12.8729Z" fill="#666666"/>
<path d="M14.5458 20.2909H13.6702V14.3723C13.4602 14.4935 13.2202 14.5598 12.9726 14.5608C12.9708 14.5608 12.9689 14.5608 12.9671 14.5608C12.7177 14.5608 12.4756 14.4944 12.2639 14.3722V20.2909H11.3086C10.9203 20.2909 10.6055 20.6057 10.6055 20.9941C10.6055 21.3824 10.9203 21.6973 11.3086 21.6973H14.5459C14.9342 21.6973 15.249 21.3824 15.249 20.9941C15.249 20.6057 14.9342 20.2909 14.5458 20.2909Z" fill="#666666"/>
<path d="M6.85938 12.2066H2.33604V3.87145C2.33604 3.48311 2.0212 3.16827 1.63286 3.16827C1.24452 3.16827 0.929688 3.48311 0.929688 3.87145V21.0504C0.929688 21.4387 1.24452 21.7535 1.63286 21.7535C2.0212 21.7535 2.33604 21.4387 2.33604 21.0504V15.798H7.44874V21.0504C7.44874 21.4387 7.76357 21.7535 8.15191 21.7535C8.54025 21.7535 8.85509 21.4387 8.85509 21.0504V14.2023C8.85509 13.1019 7.9598 12.2066 6.85938 12.2066Z" fill="#666666"/>
<path d="M24.2268 3.16827C23.8385 3.16827 23.5236 3.48311 23.5236 3.87145V12.2066H19.1051C18.0046 12.2066 17.1094 13.1019 17.1094 14.2023V21.0504C17.1094 21.4387 17.4242 21.7535 17.8125 21.7535C18.2009 21.7535 18.5157 21.4387 18.5157 21.0504V15.7969H23.5237V21.0504C23.5237 21.4387 23.8385 21.7535 24.2268 21.7535C24.6152 21.7535 24.93 21.4387 24.93 21.0504V3.87145C24.93 3.48311 24.6152 3.16827 24.2268 3.16827Z" fill="#666666"/>
</g>
<defs>
<clipPath id="clip0_368_1506">
<rect width="24" height="24" fill="white" transform="translate(0.929688 0.460938)"/>
</clipPath>
</defs>
</svg>
