<svg width="25" height="25" viewBox="0 0 25 25" fill="none" xmlns="http://www.w3.org/2000/svg">
<g clip-path="url(#clip0_368_1528)">
<path d="M2.91955 13.4538H22.9361C23.7611 13.4538 24.4299 12.785 24.4299 11.96C24.4299 11.135 23.7611 10.4662 22.9361 10.4662H2.91955C2.09455 10.4662 1.42578 11.135 1.42578 11.96C1.42573 12.785 2.09455 13.4538 2.91955 13.4538Z" fill="#666666"/>
<path d="M14.4235 7.24429C13.9875 7.24429 13.6328 7.59895 13.6328 8.03493V9.05995H19.7518V8.03493C19.7518 7.59895 19.3972 7.24429 18.9612 7.24429H14.4235Z" fill="#666666"/>
<path d="M4.70022 8.03499C4.70022 6.8236 5.68572 5.8381 6.89711 5.8381H11.4348C12.0113 5.8381 12.5363 6.0616 12.9286 6.4261C13.3209 6.0616 13.8459 5.8381 14.4224 5.8381H18.9601C20.1715 5.8381 21.157 6.8236 21.157 8.03499V9.06001H23.4393V4.21688C23.4393 3.39188 22.7705 2.72311 21.9455 2.72311H3.91173C3.08673 2.72311 2.41797 3.39188 2.41797 4.21688V9.06001H4.70022V8.03499Z" fill="#666666"/>
<path d="M6.90002 7.24429C6.46403 7.24429 6.10938 7.59895 6.10938 8.03493V9.05995H12.2284V8.03493C12.2284 7.59895 11.8737 7.24429 11.4377 7.24429H6.90002Z" fill="#666666"/>
<path d="M0.929688 14.86V21.3296H2.33594V18.7656H23.5234V21.3296H24.9297V14.86H0.929688Z" fill="#666666"/>
</g>
<defs>
<clipPath id="clip0_368_1528">
<rect width="24" height="24" fill="white" transform="translate(0.929688 0.0263672)"/>
</clipPath>
</defs>
</svg>
