<svg width="25" height="25" viewBox="0 0 25 25" fill="none" xmlns="http://www.w3.org/2000/svg">
<g clip-path="url(#clip0_368_1494)">
<path d="M0.933594 24.6921H10.8196V19.0229H0.933594V24.6921ZM3.09575 20.491H8.70425V21.8966H3.09575V20.491Z" fill="#666666"/>
<path d="M0.933594 17.6173H10.8196V12.0418H0.933594V17.6173ZM3.09575 13.5374H8.70425V14.943H3.09575V13.5374Z" fill="#666666"/>
<path d="M12.2266 24.6921H24.9237V12.0418H12.2266V24.6921ZM20.6601 13.5374H22.0657V14.9777H20.6601V13.5374ZM17.8489 13.5374H19.2545V14.9777H17.8489V13.5374ZM15.0378 13.5374H16.4433V14.9777H15.0378V13.5374ZM15.0378 16.2352H22.0657V21.881H15.0378V16.2352Z" fill="#666666"/>
<path d="M20.6601 3.93265V0.692139H16.4433V3.935L12.2266 6.74614V9.23065H24.9237V6.74379L20.6601 3.93265Z" fill="#666666"/>
</g>
<defs>
<clipPath id="clip0_368_1494">
<rect width="24" height="24" fill="white" transform="translate(0.929688 0.692139)"/>
</clipPath>
</defs>
</svg>
