<svg width="25" height="25" viewBox="0 0 25 25" fill="none" xmlns="http://www.w3.org/2000/svg">
<g clip-path="url(#clip0_368_1518)">
<path d="M24.9297 7.1427V2.4552C24.9297 1.55056 24.1937 0.814575 23.2891 0.814575H14.8516C13.9469 0.814575 13.2109 1.55056 13.2109 2.4552V7.1427C13.2109 8.04734 13.9469 8.78333 14.8516 8.78333H16.7635L16.412 10.1896H12.4766L12.3338 7.04693C12.2824 5.91781 11.3568 5.03333 10.2265 5.03333H6.35162C5.22137 5.03333 4.29578 5.91781 4.24441 7.04693L4.10158 10.1896H1.63281C1.2445 10.1896 0.929688 10.5044 0.929688 10.8927V23.0802C0.929688 23.4685 1.2445 23.7833 1.63281 23.7833C2.02113 23.7833 2.33594 23.4685 2.33594 23.0802V14.4083H3.93391C3.98509 14.9872 4.22805 15.5268 4.63731 15.9551C5.05347 16.3906 5.59244 16.6595 6.17973 16.7317V17.924C6.17973 18.749 6.79202 19.4335 7.58598 19.5476V21.2373L4.81469 22.0291C4.51277 22.1154 4.30469 22.3913 4.30469 22.7052V24.1115C4.30469 24.4998 4.6195 24.8146 5.00781 24.8146C5.39612 24.8146 5.71094 24.4998 5.71094 24.1115V23.2355L7.58594 22.6998V23.6427C7.58594 24.031 7.90075 24.3458 8.28906 24.3458C8.67737 24.3458 8.99219 24.031 8.99219 23.6427V22.6999L10.8672 23.2356V24.1115C10.8672 24.4998 11.182 24.8146 11.5703 24.8146C11.9586 24.8146 12.2734 24.4998 12.2734 24.1115V22.7052C12.2734 22.3913 12.0654 22.1154 11.7635 22.0291L8.99219 21.2374V19.5476C9.78616 19.4335 10.3984 18.749 10.3984 17.924V16.7317C10.9857 16.6595 11.5247 16.3906 11.9409 15.9552C12.3501 15.5269 12.5931 14.9872 12.6443 14.4084H14.1484V23.0802C14.1484 23.4686 14.4633 23.7834 14.8516 23.7834C15.2399 23.7834 15.5547 23.4686 15.5547 23.0802V20.9709H23.5234V23.0802C23.5234 23.4686 23.8382 23.7834 24.2266 23.7834C24.6149 23.7834 24.9297 23.4686 24.9297 23.0802V10.8927C24.9297 10.5044 24.6149 10.1896 24.2266 10.1896H21.7286L21.3771 8.78333H23.2891C24.1937 8.78333 24.9297 8.04734 24.9297 7.1427ZM3.9737 13.0021H2.33594V11.5958H4.03764L3.9737 13.0021ZM8.99219 17.924C8.99219 18.0532 8.88705 18.1583 8.75781 18.1583H7.82031C7.69108 18.1583 7.58594 18.0532 7.58594 17.924V16.7521H8.99219V17.924ZM10.9241 14.9835C10.7009 15.2172 10.4 15.3458 10.0769 15.3458H6.50125C6.17814 15.3458 5.87725 15.2172 5.65403 14.9835C5.43077 14.75 5.31592 14.4435 5.33059 14.1207L5.6492 7.11073C5.66631 6.73442 5.97484 6.43958 6.35158 6.43958H10.2265C10.6033 6.43958 10.9118 6.73442 10.9289 7.11078L11.2475 14.1207C11.2622 14.4435 11.1474 14.75 10.9241 14.9835ZM23.5234 19.5646H15.5547V14.4083H23.5234V19.5646ZM23.5234 11.5958V13.0021H12.6044L12.5405 11.5958H23.5234ZM17.8615 10.1896L18.213 8.78333H19.9276L20.2791 10.1896H17.8615ZM14.8516 7.37708C14.7223 7.37708 14.6172 7.27193 14.6172 7.1427V2.4552C14.6172 2.32597 14.7223 2.22083 14.8516 2.22083H23.2891C23.4183 2.22083 23.5234 2.32597 23.5234 2.4552V7.1427C23.5234 7.27193 23.4183 7.37708 23.2891 7.37708H14.8516Z" fill="white"/>
<path d="M18.1328 17.2208H20.9453C21.3336 17.2208 21.6484 16.906 21.6484 16.5177C21.6484 16.1294 21.3336 15.8146 20.9453 15.8146H18.1328C17.7445 15.8146 17.4297 16.1294 17.4297 16.5177C17.4297 16.906 17.7445 17.2208 18.1328 17.2208Z" fill="white"/>
</g>
<defs>
<clipPath id="clip0_368_1518">
<rect width="24" height="24" fill="white" transform="translate(0.929688 0.814575)"/>
</clipPath>
</defs>
</svg>
