<svg width="25" height="25" viewBox="0 0 25 25" fill="none" xmlns="http://www.w3.org/2000/svg">
<g clip-path="url(#clip0_368_1541)">
<path d="M24.5547 7.99121H1.30469C1.09723 7.99121 0.929688 7.82367 0.929688 7.61621V6.11548C0.929688 5.90802 1.09723 5.74048 1.30469 5.74048H24.5547C24.7621 5.74048 24.9297 5.90802 24.9297 6.11548V7.61621C24.9297 7.82367 24.7621 7.99121 24.5547 7.99121ZM1.67969 7.24121H24.1797V6.49048H1.67969V7.24121Z" fill="#666666"/>
<path d="M1.67969 19.623C1.47223 19.623 1.30469 19.4554 1.30469 19.248V7.68304C1.30469 7.47559 1.47223 7.30804 1.67969 7.30804C1.88715 7.30804 2.05469 7.47559 2.05469 7.68304V19.248C2.05469 19.4554 1.88715 19.623 1.67969 19.623Z" fill="#666666"/>
<path d="M2.80469 19.623C2.59723 19.623 2.42969 19.4554 2.42969 19.248V7.68304C2.42969 7.47559 2.59723 7.30804 2.80469 7.30804C3.01215 7.30804 3.17969 7.47559 3.17969 7.68304V19.248C3.17969 19.4554 3.01215 19.623 2.80469 19.623Z" fill="#666666"/>
<path d="M23.0547 19.623C22.8472 19.623 22.6797 19.4554 22.6797 19.248V7.68304C22.6797 7.47559 22.8472 7.30804 23.0547 7.30804C23.2621 7.30804 23.4297 7.47559 23.4297 7.68304V19.248C23.4297 19.4554 23.2621 19.623 23.0547 19.623Z" fill="#666666"/>
<path d="M24.1797 19.623C23.9722 19.623 23.8047 19.4554 23.8047 19.248V7.68304C23.8047 7.47559 23.9722 7.30804 24.1797 7.30804C24.3871 7.30804 24.5547 7.47559 24.5547 7.68304V19.248C24.5547 19.4554 24.3871 19.623 24.1797 19.623Z" fill="#666666"/>
<path d="M2.80469 19.623H1.67969C1.47223 19.623 1.30469 19.4554 1.30469 19.248C1.30469 19.0405 1.47223 18.873 1.67969 18.873H2.80469C3.01215 18.873 3.17969 19.0405 3.17969 19.248C3.17969 19.4554 3.01215 19.623 2.80469 19.623Z" fill="#666666"/>
<path d="M24.1797 19.623H23.0547C22.8472 19.623 22.6797 19.4554 22.6797 19.248C22.6797 19.0405 22.8472 18.873 23.0547 18.873H24.1797C24.3871 18.873 24.5547 19.0405 24.5547 19.248C24.5547 19.4554 24.3871 19.623 24.1797 19.623Z" fill="#666666"/>
<path d="M23.0547 13.2458H2.80469C2.59723 13.2458 2.42969 13.0781 2.42969 12.8708C2.42969 12.6633 2.59723 12.4958 2.80469 12.4958H23.0547C23.2621 12.4958 23.4297 12.6633 23.4297 12.8708C23.4297 13.0781 23.2621 13.2458 23.0547 13.2458Z" fill="#666666"/>
<path d="M23.0547 14.3715H2.80469C2.59723 14.3715 2.42969 14.2038 2.42969 13.9965C2.42969 13.7891 2.59723 13.6215 2.80469 13.6215H23.0547C23.2621 13.6215 23.4297 13.7891 23.4297 13.9965C23.4297 14.2038 23.2621 14.3715 23.0547 14.3715Z" fill="#666666"/>
<path d="M4.30469 13.2465C4.09723 13.2465 3.92969 13.0788 3.92969 12.8715C3.92969 11.8375 4.77051 10.9965 5.80432 10.9965C6.0116 10.9965 6.17932 11.1641 6.17932 11.3715C6.17932 11.5788 6.0116 11.7465 5.80432 11.7465C5.18451 11.7465 4.67969 12.2512 4.67969 12.8715C4.67969 13.0788 4.51196 13.2465 4.30469 13.2465Z" fill="#666666"/>
<path d="M8.05432 13.2465C7.84686 13.2465 7.67932 13.0788 7.67932 12.8715C7.67932 12.2512 7.1745 11.7465 6.55469 11.7465C6.34741 11.7465 6.17969 11.5788 6.17969 11.3715C6.17969 11.1641 6.34741 10.9965 6.55469 10.9965C7.5885 10.9965 8.42932 11.8375 8.42932 12.8715C8.42932 13.0788 8.26178 13.2465 8.05432 13.2465Z" fill="#666666"/>
<path d="M4.67969 12.2546C4.47223 12.2546 4.30469 12.0869 4.30469 11.8796V9.87152C4.30469 9.66406 4.47223 9.49652 4.67969 9.49652C4.88696 9.49652 5.05469 9.66406 5.05469 9.87152V11.8796C5.05469 12.0869 4.88696 12.2546 4.67969 12.2546Z" fill="#666666"/>
<path d="M7.67969 12.2546C7.47223 12.2546 7.30469 12.0869 7.30469 11.8796V9.87152C7.30469 9.66406 7.47223 9.49652 7.67969 9.49652C7.88696 9.49652 8.05469 9.66406 8.05469 9.87152V11.8796C8.05469 12.0869 7.88696 12.2546 7.67969 12.2546Z" fill="#666666"/>
<path d="M5.42969 10.6223C5.22223 10.6223 5.05469 10.4545 5.05469 10.2473V9.12152C5.05469 8.91406 5.22223 8.74652 5.42969 8.74652C5.63715 8.74652 5.80469 8.91406 5.80469 9.12152V10.2473C5.80469 10.4545 5.63715 10.6223 5.42969 10.6223Z" fill="#666666"/>
<path d="M6.92969 9.49652H5.42969C5.22223 9.49652 5.05469 9.3288 5.05469 9.12152C5.05469 8.91406 5.22223 8.74652 5.42969 8.74652H6.92969C7.13715 8.74652 7.30469 8.91406 7.30469 9.12152C7.30469 9.3288 7.13715 9.49652 6.92969 9.49652Z" fill="#666666"/>
<path d="M6.92969 10.6223C6.72223 10.6223 6.55469 10.4545 6.55469 10.2473V9.12152C6.55469 8.91406 6.72223 8.74652 6.92969 8.74652C7.13715 8.74652 7.30469 8.91406 7.30469 9.12152V10.2473C7.30469 10.4545 7.13715 10.6223 6.92969 10.6223Z" fill="#666666"/>
<path d="M5.43042 10.2465H4.67969C4.47223 10.2465 4.30469 10.0788 4.30469 9.87152C4.30469 9.66406 4.47223 9.49652 4.67969 9.49652H5.43042C5.63788 9.49652 5.80542 9.66406 5.80542 9.87152C5.80542 10.0788 5.63788 10.2465 5.43042 10.2465Z" fill="#666666"/>
<path d="M7.67822 10.2465H6.92969C6.72223 10.2465 6.55469 10.0788 6.55469 9.87152C6.55469 9.66406 6.72223 9.49652 6.92969 9.49652H7.67822C7.8855 9.49652 8.05322 9.66406 8.05322 9.87152C8.05322 10.0788 7.8855 10.2465 7.67822 10.2465Z" fill="#666666"/>
<path d="M6.55615 11.7465H5.80469C5.59723 11.7465 5.42969 11.5788 5.42969 11.3715C5.42969 11.1641 5.59723 10.9965 5.80469 10.9965H6.55615C6.76361 10.9965 6.93115 11.1641 6.93115 11.3715C6.93115 11.5788 6.76361 11.7465 6.55615 11.7465Z" fill="#666666"/>
<path d="M9.17969 13.2465C8.97223 13.2465 8.80469 13.0788 8.80469 12.8715C8.80469 11.8375 9.64551 10.9965 10.6793 10.9965C10.8866 10.9965 11.0543 11.1641 11.0543 11.3715C11.0543 11.5788 10.8866 11.7465 10.6793 11.7465C10.0595 11.7465 9.55469 12.2512 9.55469 12.8715C9.55469 13.0788 9.38696 13.2465 9.17969 13.2465Z" fill="#666666"/>
<path d="M12.9293 13.2465C12.7219 13.2465 12.5543 13.0788 12.5543 12.8715C12.5543 12.2512 12.0495 11.7465 11.4297 11.7465C11.2224 11.7465 11.0547 11.5788 11.0547 11.3715C11.0547 11.1641 11.2224 10.9965 11.4297 10.9965C12.4635 10.9965 13.3043 11.8375 13.3043 12.8715C13.3043 13.0788 13.1368 13.2465 12.9293 13.2465Z" fill="#666666"/>
<path d="M9.55469 12.2546C9.34723 12.2546 9.17969 12.0869 9.17969 11.8796V9.87152C9.17969 9.66406 9.34723 9.49652 9.55469 9.49652C9.76196 9.49652 9.92969 9.66406 9.92969 9.87152V11.8796C9.92969 12.0869 9.76196 12.2546 9.55469 12.2546Z" fill="#666666"/>
<path d="M12.5547 12.2546C12.3472 12.2546 12.1797 12.0869 12.1797 11.8796V9.87152C12.1797 9.66406 12.3472 9.49652 12.5547 9.49652C12.762 9.49652 12.9297 9.66406 12.9297 9.87152V11.8796C12.9297 12.0869 12.762 12.2546 12.5547 12.2546Z" fill="#666666"/>
<path d="M10.3047 10.6223C10.0972 10.6223 9.92969 10.4545 9.92969 10.2473V9.12152C9.92969 8.91406 10.0972 8.74652 10.3047 8.74652C10.5121 8.74652 10.6797 8.91406 10.6797 9.12152V10.2473C10.6797 10.4545 10.5121 10.6223 10.3047 10.6223Z" fill="#666666"/>
<path d="M11.8047 9.49652H10.3047C10.0972 9.49652 9.92969 9.3288 9.92969 9.12152C9.92969 8.91406 10.0972 8.74652 10.3047 8.74652H11.8047C12.0121 8.74652 12.1797 8.91406 12.1797 9.12152C12.1797 9.3288 12.0121 9.49652 11.8047 9.49652Z" fill="#666666"/>
<path d="M11.8047 10.6223C11.5972 10.6223 11.4297 10.4545 11.4297 10.2473V9.12152C11.4297 8.91406 11.5972 8.74652 11.8047 8.74652C12.0121 8.74652 12.1797 8.91406 12.1797 9.12152V10.2473C12.1797 10.4545 12.0121 10.6223 11.8047 10.6223Z" fill="#666666"/>
<path d="M10.3054 10.2465H9.55469C9.34723 10.2465 9.17969 10.0788 9.17969 9.87152C9.17969 9.66406 9.34723 9.49652 9.55469 9.49652H10.3054C10.5129 9.49652 10.6804 9.66406 10.6804 9.87152C10.6804 10.0788 10.5129 10.2465 10.3054 10.2465Z" fill="#666666"/>
<path d="M12.5532 10.2465H11.8047C11.5972 10.2465 11.4297 10.0788 11.4297 9.87152C11.4297 9.66406 11.5972 9.49652 11.8047 9.49652H12.5532C12.7605 9.49652 12.9282 9.66406 12.9282 9.87152C12.9282 10.0788 12.7605 10.2465 12.5532 10.2465Z" fill="#666666"/>
<path d="M11.4312 11.7465H10.6797C10.4722 11.7465 10.3047 11.5788 10.3047 11.3715C10.3047 11.1641 10.4722 10.9965 10.6797 10.9965H11.4312C11.6386 10.9965 11.8062 11.1641 11.8062 11.3715C11.8062 11.5788 11.6386 11.7465 11.4312 11.7465Z" fill="#666666"/>
<path d="M12.9375 18.8723C12.73 18.8723 12.5625 18.7045 12.5625 18.4973C12.5625 17.8765 13.0677 17.3715 13.6882 17.3715C13.8957 17.3715 14.0632 17.5391 14.0632 17.7465C14.0632 17.9538 13.8957 18.1215 13.6882 18.1215C13.481 18.1215 13.3125 18.2898 13.3125 18.4973C13.3125 18.7045 13.1446 18.8723 12.9375 18.8723Z" fill="#666666"/>
<path d="M16.6875 18.8723C16.4802 18.8723 16.3125 18.7045 16.3125 18.4973C16.3125 18.2902 16.1446 18.1223 15.9375 18.1223C15.7302 18.1223 15.5625 17.9545 15.5625 17.7473C15.5625 17.5398 15.7302 17.3723 15.9375 17.3723C16.5579 17.3723 17.0625 17.8769 17.0625 18.4973C17.0625 18.7045 16.895 18.8723 16.6875 18.8723Z" fill="#666666"/>
<path d="M16.6886 19.623H12.9375C12.73 19.623 12.5625 19.4554 12.5625 19.248C12.5625 19.0405 12.73 18.873 12.9375 18.873H16.689C16.8964 18.873 17.064 19.0405 17.064 19.248C17.064 19.4554 16.8961 19.623 16.6886 19.623Z" fill="#666666"/>
<path d="M15.967 18.1215H13.6562C13.449 18.1215 13.2812 17.9538 13.2812 17.7465C13.2812 17.5391 13.449 17.3715 13.6562 17.3715H15.967C16.1745 17.3715 16.342 17.5391 16.342 17.7465C16.342 17.9538 16.1745 18.1215 15.967 18.1215Z" fill="#666666"/>
<path d="M13.6875 18.1215C13.48 18.1215 13.3125 17.9538 13.3125 17.7465V15.4973C13.3125 15.2898 13.48 15.1223 13.6875 15.1223C13.895 15.1223 14.0625 15.2898 14.0625 15.4973V17.7465C14.0625 17.9538 13.895 18.1215 13.6875 18.1215Z" fill="#666666"/>
<path d="M15.9375 18.1223C15.7302 18.1223 15.5625 17.9545 15.5625 17.7473V15.4973C15.5625 15.2898 15.7302 15.1223 15.9375 15.1223C16.145 15.1223 16.3125 15.2898 16.3125 15.4973V17.7473C16.3125 17.9545 16.145 18.1223 15.9375 18.1223Z" fill="#666666"/>
<path d="M12.9375 19.623C12.73 19.623 12.5625 19.4554 12.5625 19.248V18.4973C12.5625 18.2898 12.73 18.1223 12.9375 18.1223C13.145 18.1223 13.3125 18.2898 13.3125 18.4973V19.248C13.3125 19.4554 13.1446 19.623 12.9375 19.623Z" fill="#666666"/>
<path d="M16.6875 19.623C16.4802 19.623 16.3125 19.4554 16.3125 19.248V18.4973C16.3125 18.2898 16.4802 18.1223 16.6875 18.1223C16.895 18.1223 17.0625 18.2898 17.0625 18.4973V19.248C17.0625 19.4554 16.895 19.623 16.6875 19.623Z" fill="#666666"/>
<path d="M15.939 15.8723H13.6875C13.48 15.8723 13.3125 15.7045 13.3125 15.4973C13.3125 15.2898 13.48 15.1223 13.6875 15.1223H15.939C16.1464 15.1223 16.314 15.2898 16.314 15.4973C16.314 15.7045 16.1464 15.8723 15.939 15.8723Z" fill="#666666"/>
<path d="M16.3136 16.9973H13.3125C13.105 16.9973 12.9375 16.8295 12.9375 16.6223C12.9375 16.4148 13.105 16.2473 13.3125 16.2473H16.3136C16.5211 16.2473 16.6886 16.4148 16.6886 16.6223C16.6886 16.8295 16.5211 16.9973 16.3136 16.9973Z" fill="#666666"/>
<path d="M17.8125 18.8723C17.605 18.8723 17.4375 18.7045 17.4375 18.4973C17.4375 17.8765 17.9427 17.3715 18.5632 17.3715C18.7707 17.3715 18.9382 17.5391 18.9382 17.7465C18.9382 17.9538 18.7707 18.1215 18.5632 18.1215C18.356 18.1215 18.1875 18.2898 18.1875 18.4973C18.1875 18.7045 18.0196 18.8723 17.8125 18.8723Z" fill="#666666"/>
<path d="M21.5625 18.8723C21.3552 18.8723 21.1875 18.7045 21.1875 18.4973C21.1875 18.2902 21.0196 18.1223 20.8125 18.1223C20.6052 18.1223 20.4375 17.9545 20.4375 17.7473C20.4375 17.5398 20.6052 17.3723 20.8125 17.3723C21.4329 17.3723 21.9375 17.8769 21.9375 18.4973C21.9375 18.7045 21.77 18.8723 21.5625 18.8723Z" fill="#666666"/>
<path d="M21.5636 19.623H17.8125C17.605 19.623 17.4375 19.4554 17.4375 19.248C17.4375 19.0405 17.605 18.873 17.8125 18.873H21.564C21.7714 18.873 21.939 19.0405 21.939 19.248C21.939 19.4554 21.7711 19.623 21.5636 19.623Z" fill="#666666"/>
<path d="M20.842 18.1215H18.5312C18.324 18.1215 18.1562 17.9538 18.1562 17.7465C18.1562 17.5391 18.324 17.3715 18.5312 17.3715H20.842C21.0495 17.3715 21.217 17.5391 21.217 17.7465C21.217 17.9538 21.0495 18.1215 20.842 18.1215Z" fill="#666666"/>
<path d="M18.5625 18.1215C18.355 18.1215 18.1875 17.9538 18.1875 17.7465V15.4973C18.1875 15.2898 18.355 15.1223 18.5625 15.1223C18.77 15.1223 18.9375 15.2898 18.9375 15.4973V17.7465C18.9375 17.9538 18.77 18.1215 18.5625 18.1215Z" fill="#666666"/>
<path d="M20.8125 18.1223C20.6052 18.1223 20.4375 17.9545 20.4375 17.7473V15.4973C20.4375 15.2898 20.6052 15.1223 20.8125 15.1223C21.02 15.1223 21.1875 15.2898 21.1875 15.4973V17.7473C21.1875 17.9545 21.02 18.1223 20.8125 18.1223Z" fill="#666666"/>
<path d="M17.8125 19.623C17.605 19.623 17.4375 19.4554 17.4375 19.248V18.4973C17.4375 18.2898 17.605 18.1223 17.8125 18.1223C18.02 18.1223 18.1875 18.2898 18.1875 18.4973V19.248C18.1875 19.4554 18.0196 19.623 17.8125 19.623Z" fill="#666666"/>
<path d="M21.5625 19.623C21.3552 19.623 21.1875 19.4554 21.1875 19.248V18.4973C21.1875 18.2898 21.3552 18.1223 21.5625 18.1223C21.77 18.1223 21.9375 18.2898 21.9375 18.4973V19.248C21.9375 19.4554 21.77 19.623 21.5625 19.623Z" fill="#666666"/>
<path d="M20.814 15.8723H18.5625C18.355 15.8723 18.1875 15.7045 18.1875 15.4973C18.1875 15.2898 18.355 15.1223 18.5625 15.1223H20.814C21.0214 15.1223 21.189 15.2898 21.189 15.4973C21.189 15.7045 21.0214 15.8723 20.814 15.8723Z" fill="#666666"/>
<path d="M21.1886 16.9973H18.1875C17.98 16.9973 17.8125 16.8295 17.8125 16.6223C17.8125 16.4148 17.98 16.2473 18.1875 16.2473H21.1886C21.3961 16.2473 21.5636 16.4148 21.5636 16.6223C21.5636 16.8295 21.3961 16.9973 21.1886 16.9973Z" fill="#666666"/>
</g>
<defs>
<clipPath id="clip0_368_1541">
<rect width="24" height="24" fill="white" transform="translate(0.929688 0.677979)"/>
</clipPath>
</defs>
</svg>
